<?xml version="1.0" encoding="utf-8"?>
<svg viewBox="0 -50 50 50" xmlns="http://www.w3.org/2000/svg">
  <path d="M 49.998 -40.494 C 48.158 -39.679 46.181 -39.128 44.106 -38.88 C 46.224 -40.148 47.851 -42.157 48.617 -44.551 C 46.635 -43.375 44.439 -42.523 42.103 -42.063 C 40.232 -44.056 37.565 -45.3 34.615 -45.3 C 28.95 -45.3 24.357 -40.711 24.357 -35.051 C 24.357 -34.247 24.448 -33.465 24.623 -32.714 C 16.097 -33.143 8.538 -37.223 3.479 -43.423 C 2.596 -41.91 2.09 -40.149 2.09 -38.271 C 2.09 -34.715 3.901 -31.578 6.654 -29.74 C 4.972 -29.793 3.39 -30.255 2.007 -31.022 C 2.006 -30.979 2.006 -30.936 2.006 -30.894 C 2.006 -25.928 5.543 -21.784 10.235 -20.842 C 9.374 -20.609 8.468 -20.483 7.533 -20.483 C 6.872 -20.483 6.229 -20.548 5.602 -20.667 C 6.908 -16.596 10.696 -13.632 15.185 -13.549 C 11.674 -10.8 7.251 -9.161 2.445 -9.161 C 1.617 -9.161 0.801 -9.21 -0.002 -9.306 C 4.538 -6.397 9.93 -4.7 15.723 -4.7 C 34.591 -4.7 44.909 -20.318 44.909 -33.862 C 44.909 -34.307 44.899 -34.749 44.879 -35.188 C 46.884 -36.634 48.623 -38.438 49.998 -40.494 Z"/>
</svg>